<svg width="39" height="46" viewBox="0 0 39 46" fill="none" xmlns="http://www.w3.org/2000/svg">
<path d="M38.2736 11.1709L19.7059 21.6587" stroke="white" stroke-width="1.63964"/>
<path d="M19.6193 44.6786V21.4809L1.31189 11.3486" stroke="white" stroke-width="1.63964"/>
<path d="M19.6193 21.3923V21.3037" stroke="white" stroke-width="3.68919"/>
<path d="M38.913 11.0191L19.6802 0.480469L0.440918 11.0191V11.0241L19.6737 21.561L38.913 11.0224V11.0191ZM3.00014 11.5252L19.6802 2.3874L36.3537 11.5252L19.6786 20.663L3.00014 11.5252Z" fill="#FEFEFF"/>
<path d="M38.9146 34.6218V11.0205L19.6819 21.5608L19.6786 45.1604L38.9146 34.6218ZM37.273 33.6128L20.4994 42.8028V22.1191L37.273 12.9291V33.6128Z" fill="#FEFEFF"/>
<path d="M19.6769 45.1604L19.672 21.5608L0.440796 11.0205V34.6218L19.6769 45.1604ZM2.08238 12.9291L18.8561 22.1191V42.8028L2.08238 33.6128V12.9291Z" fill="#FEFEFF"/>
</svg>
