<svg width="166" height="31" viewBox="0 0 166 31" fill="none" xmlns="http://www.w3.org/2000/svg">
<g clip-path="url(#clip0_746:22354)">
<path d="M59.729 6.54C62.4232 6.54 62.7394 6.55083 63.8043 6.59419C64.7891 6.63392 65.3215 6.78204 65.6778 6.90848C66.1502 7.07465 66.4865 7.26973 66.8387 7.58763C67.191 7.90554 67.4112 8.20899 67.5914 8.63527C67.7275 8.95679 67.8956 9.43726 67.9396 10.3259C67.9877 11.2869 67.9997 11.5723 67.9997 14.0035C67.9997 16.4348 67.9877 16.7201 67.9396 17.6811C67.8956 18.5698 67.7315 19.0502 67.5914 19.3718C67.4072 19.798 67.191 20.1015 66.8387 20.4194C66.4865 20.7373 66.1502 20.936 65.6778 21.0985C65.3215 21.2214 64.7891 21.3731 63.8043 21.4128C62.7394 21.4562 62.4232 21.467 59.729 21.467C57.0348 21.467 56.7186 21.4562 55.6537 21.4128C54.6689 21.3731 54.1365 21.225 53.7802 21.0985C53.3078 20.9324 52.9716 20.7373 52.6193 20.4194C52.267 20.1015 52.0468 19.798 51.8667 19.3718C51.7306 19.0502 51.5624 18.5698 51.5184 17.6811C51.4704 16.7201 51.4584 16.4348 51.4584 14.0035C51.4584 11.5723 51.4704 11.2869 51.5184 10.3259C51.5624 9.43726 51.7266 8.95679 51.8667 8.63527C52.0508 8.20899 52.267 7.90554 52.6193 7.58763C52.9716 7.26973 53.3078 7.07104 53.7802 6.90848C54.1365 6.78565 54.6689 6.63392 55.6537 6.59419C56.7186 6.54722 57.0389 6.54 59.729 6.54ZM59.729 4.8999C56.9908 4.8999 56.6465 4.91074 55.5697 4.95409C54.4968 4.99744 53.7642 5.15278 53.1237 5.37676C52.4592 5.60796 51.8987 5.92225 51.3383 6.42801C50.7778 6.93376 50.4335 7.44313 50.1733 8.0392C49.9251 8.61721 49.753 9.27831 49.7049 10.2501C49.6569 11.2182 49.6449 11.5289 49.6449 13.9999C49.6449 16.4709 49.6569 16.7816 49.7049 17.7533C49.753 18.7215 49.9251 19.3826 50.1733 19.9642C50.4295 20.5639 50.7778 21.0696 51.3383 21.5754C51.8987 22.0812 52.4632 22.3918 53.1237 22.6267C53.7642 22.8506 54.4968 23.006 55.5737 23.0493C56.6505 23.0927 56.9908 23.1035 59.733 23.1035C62.4752 23.1035 62.8155 23.0927 63.8924 23.0493C64.9652 23.006 65.6978 22.8506 66.3423 22.6267C67.0069 22.3955 67.5673 22.0812 68.1278 21.5754C68.6882 21.0696 69.0325 20.5603 69.2927 19.9642C69.5409 19.3862 69.7131 18.7251 69.7611 17.7533C69.8091 16.7816 69.8211 16.4745 69.8211 13.9999C69.8211 11.5253 69.8091 11.2182 69.7611 10.2465C69.7131 9.2783 69.5409 8.61721 69.2927 8.03559C69.0365 7.43591 68.6882 6.93015 68.1278 6.4244C67.5673 5.91864 67.0029 5.60796 66.3423 5.37315C65.7018 5.14917 64.9692 4.99383 63.8924 4.95048C62.8115 4.91074 62.4672 4.8999 59.729 4.8999Z" fill="white"/>
<path d="M59.729 9.32886C56.8707 9.32886 54.5488 11.4205 54.5488 14.0035C54.5488 16.5865 56.8667 18.6781 59.729 18.6781C62.5913 18.6781 64.9092 16.5865 64.9092 14.0035C64.9092 11.4205 62.5913 9.32886 59.729 9.32886ZM59.729 17.0344C57.8715 17.0344 56.3663 15.6761 56.3663 13.9999C56.3663 12.3237 57.8715 10.9653 59.729 10.9653C61.5865 10.9653 63.0917 12.3237 63.0917 13.9999C63.0917 15.6761 61.5865 17.0344 59.729 17.0344Z" fill="white"/>
<path d="M65.1132 10.232C65.7809 10.232 66.3222 9.74357 66.3222 9.14104C66.3222 8.5385 65.7809 8.05005 65.1132 8.05005C64.4455 8.05005 63.9042 8.5385 63.9042 9.14104C63.9042 9.74357 64.4455 10.232 65.1132 10.232Z" fill="white"/>
</g>
<g clip-path="url(#clip1_746:22354)">
<path d="M114.028 14.0553C114.028 8.99839 109.514 4.8999 103.944 4.8999C98.3741 4.8999 93.8599 8.99839 93.8599 14.0553C93.8599 18.6259 97.5469 22.4132 102.368 23.0999V16.7018H99.8079V14.0553H102.368V12.0383C102.368 9.74405 103.873 8.47624 106.177 8.47624C107.28 8.47624 108.435 8.65506 108.435 8.65506V10.9082H107.162C105.91 10.9082 105.52 11.6145 105.52 12.3387V14.0553H108.316L107.869 16.7018H105.52V23.0999C110.341 22.4132 114.028 18.6259 114.028 14.0553Z" fill="white"/>
</g>
<path fill-rule="evenodd" clip-rule="evenodd" d="M149.371 7.26367C144.182 7.26367 139.997 10.2845 139.997 13.9519C139.997 16.3323 141.738 18.4167 144.349 19.607L143.466 22.5856C143.449 22.6302 143.446 22.6781 143.458 22.724C143.47 22.7699 143.496 22.8119 143.533 22.8453C143.586 22.888 143.655 22.9116 143.727 22.9118C143.786 22.9075 143.842 22.8864 143.887 22.8514L147.69 20.5374C148.252 20.6073 148.817 20.6436 149.384 20.6461C154.566 20.6461 158.757 17.6253 158.757 13.9519C158.757 10.2785 154.553 7.26367 149.371 7.26367ZM143.278 12.8945H142.253C142.126 12.8979 142.001 12.8685 141.892 12.81C141.843 12.7825 141.802 12.7464 141.769 12.7037C141.737 12.6611 141.715 12.6129 141.704 12.5622C141.701 12.5301 141.701 12.4978 141.704 12.4656C141.701 12.4054 141.714 12.3454 141.742 12.2907C141.77 12.236 141.812 12.1883 141.865 12.1514C141.982 12.0751 142.123 12.0348 142.267 12.0366H145.353C145.481 12.0325 145.607 12.0642 145.715 12.1272C145.764 12.1534 145.807 12.1893 145.839 12.2321C145.872 12.2749 145.893 12.3237 145.902 12.375C145.905 12.4051 145.905 12.4355 145.902 12.4656C145.905 12.5266 145.892 12.5875 145.865 12.6431C145.837 12.6988 145.794 12.7476 145.742 12.7858C145.628 12.862 145.488 12.9004 145.346 12.8945H144.356V16.0725C144.36 16.1402 144.348 16.2079 144.322 16.2714C144.295 16.3348 144.254 16.3926 144.202 16.4411C144.151 16.4874 144.091 16.5237 144.024 16.5476C143.957 16.5716 143.885 16.5826 143.813 16.58C143.688 16.5832 143.564 16.547 143.465 16.4773C143.371 16.4093 143.306 16.3127 143.284 16.2054C143.278 16.1613 143.278 16.1166 143.284 16.0725L143.278 12.8945ZM146.392 12.0305C146.296 12.0867 146.227 12.1728 146.198 12.2722L144.778 15.7463C144.771 15.7649 144.762 15.7841 144.753 15.8035L144.753 15.8035C144.729 15.853 144.705 15.9039 144.705 15.9517C144.693 16.0117 144.693 16.073 144.705 16.1329C144.701 16.1671 144.701 16.2015 144.705 16.2357C144.724 16.3358 144.784 16.4261 144.872 16.4894C144.963 16.5507 145.074 16.5827 145.187 16.58C145.291 16.5919 145.397 16.5707 145.486 16.52C145.575 16.4693 145.642 16.3923 145.676 16.3021L145.957 15.559H147.718L147.999 16.3021C148.033 16.3906 148.099 16.4661 148.186 16.5165C148.274 16.5669 148.378 16.5893 148.481 16.58C148.548 16.5815 148.615 16.5704 148.677 16.5476C148.739 16.5247 148.796 16.4905 148.842 16.4471C148.891 16.4076 148.929 16.359 148.955 16.3047C148.98 16.2504 148.992 16.1918 148.99 16.1329C148.992 16.0947 148.992 16.0564 148.99 16.0182C148.966 15.9261 148.937 15.8353 148.903 15.7463L147.564 12.3326C147.532 12.2117 147.45 12.106 147.336 12.0366C147.228 11.9812 147.105 11.954 146.981 11.958H146.727C146.61 11.9533 146.494 11.9785 146.392 12.0305ZM146.231 14.8763L146.867 13.0637L147.497 14.8763H146.231ZM149.143 12.4657C149.136 12.3301 149.189 12.1976 149.29 12.0971C149.342 12.0503 149.403 12.0138 149.472 11.9898C149.54 11.9659 149.612 11.9551 149.685 11.9581C149.811 11.9568 149.933 11.9929 150.034 12.0609C150.126 12.1317 150.188 12.2303 150.208 12.3387C150.214 12.3808 150.214 12.4236 150.208 12.4657V15.6437H152.049C152.176 15.6421 152.302 15.6735 152.41 15.7342C152.459 15.7613 152.501 15.7975 152.533 15.8401C152.566 15.8828 152.587 15.9311 152.598 15.982V16.0726C152.601 16.1328 152.588 16.1927 152.56 16.2474C152.532 16.3021 152.49 16.3499 152.437 16.3868C152.32 16.4631 152.179 16.5033 152.035 16.5015H149.772C149.628 16.5099 149.485 16.476 149.364 16.4049C149.256 16.3319 149.184 16.2234 149.163 16.1028C149.158 16.0364 149.158 15.9698 149.163 15.9034L149.143 12.4657ZM152.866 12.0972C152.767 12.1989 152.715 12.3305 152.719 12.4657L152.678 16.0424C152.672 16.0865 152.672 16.1313 152.678 16.1754C152.7 16.2827 152.765 16.3792 152.859 16.4472C152.956 16.516 153.077 16.5523 153.201 16.55C153.275 16.5527 153.348 16.5418 153.417 16.5179C153.486 16.494 153.549 16.4576 153.602 16.4109C153.701 16.3092 153.754 16.1776 153.75 16.0424V15.0335L154.345 14.4715L155.591 16.2841C155.642 16.369 155.716 16.4416 155.805 16.4955C155.887 16.5346 155.98 16.5534 156.073 16.55C156.213 16.5517 156.349 16.5113 156.461 16.4351C156.521 16.3895 156.567 16.3317 156.596 16.2665C156.625 16.2012 156.636 16.1305 156.629 16.0605V16.0304C156.592 15.9288 156.537 15.8329 156.468 15.7464V15.6859L155.129 13.813L156.24 12.7134C156.289 12.6634 156.332 12.6088 156.367 12.5503C156.402 12.4951 156.421 12.4326 156.421 12.369C156.418 12.3551 156.418 12.3407 156.421 12.3268C156.424 12.3148 156.424 12.3024 156.421 12.2905C156.411 12.2417 156.391 12.1952 156.361 12.1537C156.331 12.1121 156.292 12.0765 156.247 12.0488C156.15 11.9892 156.036 11.9576 155.919 11.9582C155.839 11.9567 155.76 11.9756 155.691 12.0126C155.618 12.0651 155.549 12.1215 155.484 12.1817L153.79 13.9459V12.4657C153.793 12.4235 153.793 12.381 153.79 12.3388C153.768 12.2297 153.704 12.1311 153.609 12.0609C153.499 11.9888 153.366 11.9531 153.23 11.9597C153.095 11.9663 152.966 12.0149 152.866 12.0972Z" fill="white"/>
<g clip-path="url(#clip2_746:22354)">
<path fill-rule="evenodd" clip-rule="evenodd" d="M22.8917 5.61426H8.03525C5.93251 5.61426 4.21997 7.16619 4.21997 9.0572V17.3907C4.21997 19.2882 5.93974 20.8336 8.03525 20.8336H13.2813L14.1845 22.2421L15.0733 23.631C15.2323 23.8853 15.6369 23.8853 15.8031 23.631L16.6919 22.2421L17.5951 20.8336H22.8989C25.0017 20.8336 26.7142 19.2817 26.7142 17.3907V9.06372C26.7142 7.16619 24.9944 5.61426 22.8917 5.61426ZM16.5039 11.7177C15.355 11.7177 14.4229 12.5458 14.4229 13.5695C14.4229 14.5933 15.355 15.4214 16.5039 15.4214C17.6529 15.4214 18.585 14.5933 18.585 13.5695C18.585 12.5458 17.6601 11.7177 16.5039 11.7177ZM16.5039 14.4564C15.9548 14.4564 15.5068 14.0586 15.5068 13.5695C15.5068 13.0805 15.9548 12.6827 16.5039 12.6827C17.0531 12.6827 17.5011 13.0805 17.5011 13.5695C17.5011 14.0586 17.0603 14.4564 16.5039 14.4564ZM8.7289 12.1415C9.05407 11.8742 9.47317 11.7177 9.92118 11.7177C10.9617 11.7177 11.7927 12.5523 11.7927 13.5761C11.7927 14.5998 10.9545 15.428 9.92118 15.428C9.46594 15.428 9.05407 15.2649 8.7289 15.0041V15.3367H7.57276V10.6091H8.7289V12.1415ZM8.73613 13.9347C8.8951 14.2673 9.26362 14.4955 9.68995 14.4955C10.268 14.4955 10.7305 14.0847 10.7305 13.5696C10.7305 13.0544 10.268 12.6436 9.68995 12.6436C9.26362 12.6436 8.8951 12.8718 8.73613 13.2044C8.67832 13.3152 8.64942 13.4391 8.64942 13.5696C8.64942 13.7 8.68554 13.8239 8.73613 13.9347ZM22.1908 11.7959V12.0894C21.8656 11.8611 21.461 11.7242 21.0274 11.7242C19.9652 11.7242 19.1053 12.5262 19.1053 13.5109C19.1053 14.4955 19.9652 15.2976 21.0274 15.2976C21.4682 15.2976 21.8728 15.1606 22.1908 14.9324V15.428C22.1908 15.428 22.0752 15.917 21.2659 15.917V16.8364C21.2659 16.8364 22.1402 16.9277 22.9206 16.2235C22.9206 16.2235 23.2819 15.8779 23.3614 15.4214V11.7959H22.1908ZM21.2442 14.4173C20.6589 14.4173 20.1892 14.0065 20.1892 13.5044C20.1892 13.0023 20.6661 12.5915 21.2442 12.5915C21.6561 12.5915 22.0174 12.8001 22.1908 13.1001C22.263 13.224 22.2992 13.3609 22.2992 13.5044C22.2992 13.6478 22.2558 13.7913 22.1908 13.9086C22.0174 14.2151 21.6561 14.4173 21.2442 14.4173ZM11.9228 11.4634V10.5179C11.9228 10.5179 12.6887 10.4266 13.368 11.1504C13.368 11.1504 13.6787 11.5025 13.7509 11.972V11.9981V15.3367H12.5587V11.9981C12.4575 11.5286 11.9228 11.4634 11.9228 11.4634Z" fill="white"/>
</g>
<defs>
<clipPath id="clip0_746:22354">
<rect width="20.1682" height="18.2" fill="white" transform="translate(49.6449 4.8999)"/>
</clipPath>
<clipPath id="clip1_746:22354">
<rect width="20.1682" height="18.2" fill="white" transform="translate(93.8599 4.8999)"/>
</clipPath>
<clipPath id="clip2_746:22354">
<rect width="31.028" height="28" fill="white"/>
</clipPath>
</defs>
</svg>
