<svg width="156" height="50" viewBox="0 0 156 50" fill="none" xmlns="http://www.w3.org/2000/svg">
<path d="M42.7922 22.36C43.7922 19.72 42.3922 17.56 40.1922 17.04C37.9522 16.52 35.8322 17.28 34.9922 19.84L28.9122 38.88L22.7522 19.88C21.9122 17.28 19.5922 16.52 17.3522 17.04C15.1522 17.56 13.5522 19.72 14.5122 22.28L24.7122 49.24H32.7922L42.7922 22.36ZM42.1147 45.8C42.1147 48.28 43.7147 49.84 46.3947 49.84C49.0747 49.84 50.6747 48.24 50.6747 45.8C50.6747 43.36 49.0747 41.76 46.3947 41.76C43.7147 41.76 42.1147 43.32 42.1147 45.8ZM62.5944 25.2C62.5944 24.24 62.8344 24.04 63.7544 24.04H73.8744C76.2344 24.04 77.1144 22.24 77.1144 20.6C77.1144 18.96 76.1944 17.04 73.8744 17.04H60.6344C55.8344 17.04 54.3944 18.76 54.3944 23.36V42.92C54.3944 47.52 55.8344 49.24 60.6344 49.24H74.2744C76.5944 49.24 77.5144 47.32 77.5144 45.68C77.5144 44.04 76.6344 42.24 74.2744 42.24H63.7544C62.8344 42.24 62.5944 42.04 62.5944 41.08V36.4H73.5144C75.8744 36.4 76.7544 34.6 76.7544 33C76.7544 31.4 75.8344 29.48 73.5144 29.48H62.5944V25.2ZM80.2788 45.8C80.2788 48.28 81.8788 49.84 84.5588 49.84C87.2388 49.84 88.8388 48.24 88.8388 45.8C88.8388 43.36 87.2388 41.76 84.5588 41.76C81.8788 41.76 80.2788 43.32 80.2788 45.8ZM100.798 49.24V37.24H111.078C113.438 37.24 114.318 35.44 114.318 33.8C114.318 32.16 113.398 30.24 111.078 30.24H100.798V25.2C100.798 24.24 101.038 24.04 101.958 24.04H112.118C114.478 24.04 115.358 22.24 115.358 20.6C115.358 18.96 114.438 17.04 112.118 17.04H98.7984C93.9984 17.04 92.5584 18.76 92.5584 23.36V49.24H100.798ZM114.888 45.8C114.888 48.28 116.488 49.84 119.168 49.84C121.848 49.84 123.448 48.24 123.448 45.8C123.448 43.36 121.848 41.76 119.168 41.76C116.488 41.76 114.888 43.32 114.888 45.8Z" fill="white"/>
<path d="M135.218 34.6419C132.025 34.3363 123.465 34.6857 122.113 24.402C132.556 23.4105 136.049 25.6839 135.218 34.6419C136.311 35.5905 137.266 38.7294 137.612 41.8733C138.113 37.7432 138.294 31.3533 142.804 27.3735C139.948 21.6681 141.666 16.5174 153.64 17.0444C154.308 20.4715 153.694 29.0477 142.804 27.3735C138.294 31.3533 138.113 37.7432 137.612 41.8733C137.266 38.7294 136.311 35.5905 135.218 34.6419Z" fill="white"/>
<path fill-rule="evenodd" clip-rule="evenodd" d="M141.522 28.2078C140.294 25.4373 140.009 22.5348 141.816 20.3061C143.75 17.9202 147.711 16.7817 153.792 17.0516C154.338 17.0759 154.793 17.4401 154.889 17.9292C155.249 19.7724 155.29 23.0492 153.682 25.7053C152.86 27.0627 151.601 28.2647 149.752 28.9928C148.047 29.6646 145.924 29.8994 143.322 29.5743C141.544 31.3165 140.55 33.5366 139.95 35.8743C139.445 37.8412 139.237 39.8012 139.048 41.5799C138.994 42.0875 138.686 46.3914 138.629 46.8654C138.563 47.4068 138.276 49.2575 137.676 49.2546C137.077 49.2516 136.952 46.6258 136.556 43.0428C136.388 41.5264 136.074 40.0215 135.678 38.7975C135.48 38.1852 135.268 37.6611 135.052 37.2488C134.936 37.0262 134.829 36.8545 134.735 36.7259C134.624 36.7181 134.507 36.7102 134.384 36.7019C132.734 36.5911 130.039 36.41 127.554 35.2751C124.459 33.8609 121.771 31.0453 121.05 25.5862C121.013 25.3033 121.102 25.0186 121.297 24.796C121.493 24.5733 121.779 24.4314 122.09 24.4019C124.742 24.1511 127.022 24.0998 128.935 24.3298C130.853 24.5604 132.478 25.0825 133.741 26.0344C136.216 27.9007 136.864 31.0594 136.528 35.3469C136.774 35.6453 136.985 35.9878 137.168 36.338C137.235 36.466 137.3 36.5992 137.363 36.737C137.453 36.2887 137.554 35.8381 137.669 35.3889C138.311 32.8895 139.418 30.3076 141.522 28.2078ZM134.265 32.9882C134.204 30.2158 133.488 28.6079 132.247 27.6721C131.434 27.0591 130.278 26.6379 128.63 26.4398C127.247 26.2736 125.57 26.2707 123.553 26.4166C124.367 30.4893 126.464 32.3958 128.604 33.3735C129.911 33.9704 131.263 34.2448 132.507 34.3962C131.747 33.679 130.865 32.8861 130 32.1273C129.118 31.3541 128.283 30.6411 127.669 30.1211C127.361 29.8613 127.11 29.6499 126.935 29.5038C126.847 29.4307 126.779 29.3739 126.733 29.3355C126.71 29.3163 126.692 29.3017 126.681 29.292L126.663 29.2776C126.663 29.2776 126.663 29.2776 126.819 29.1228L126.663 29.2776C126.185 28.8816 126.151 28.2085 126.586 27.7742C127.021 27.34 127.762 27.309 128.24 27.7051L127.452 28.4913C128.24 27.7051 128.24 27.7051 128.24 27.7051L128.24 27.7054L128.259 27.7209C128.271 27.7312 128.289 27.7463 128.313 27.7661C128.361 27.8055 128.43 27.8635 128.519 27.9378C128.697 28.0864 128.952 28.3006 129.263 28.5636C129.885 29.0894 130.73 29.8117 131.625 30.5964C132.491 31.3559 133.432 32.1991 134.265 32.9882ZM144.985 27.5794C146.599 27.645 147.85 27.4217 148.82 27.0397C150.128 26.5248 151.022 25.6833 151.63 24.6781C152.681 22.9422 152.857 20.7447 152.704 19.1466C147.465 19.05 144.835 20.171 143.701 21.5697C142.793 22.6896 142.629 24.2643 143.223 26.1749C143.778 25.5572 144.428 24.8914 145.045 24.2801C145.681 23.6496 146.291 23.0688 146.742 22.646C146.967 22.4344 147.153 22.2619 147.283 22.142C147.348 22.082 147.399 22.0352 147.434 22.0032C147.452 21.9871 147.465 21.9748 147.474 21.9664L147.488 21.9535C147.488 21.9535 147.489 21.9531 148.318 22.7054L147.488 21.9535C147.945 21.5378 148.687 21.5373 149.145 21.9528C149.602 22.3682 149.603 23.042 149.146 23.4577L149.134 23.4687C149.126 23.4763 149.113 23.4878 149.097 23.503C149.064 23.5333 149.015 23.5784 148.952 23.6364C148.826 23.7526 148.645 23.9207 148.424 24.1274C147.983 24.5412 147.389 25.1075 146.771 25.7197C146.151 26.3336 145.517 26.9851 144.993 27.5709C144.99 27.5738 144.988 27.5766 144.985 27.5794Z" fill="white"/>
<path fill-rule="evenodd" clip-rule="evenodd" d="M149.103 22.1101C149.673 22.5546 149.739 23.3348 149.25 23.8528L143.834 29.5894C143.345 30.1074 142.487 30.1669 141.917 29.7224C141.347 29.278 141.282 28.4977 141.771 27.9798L147.186 22.2432C147.675 21.7252 148.534 21.6656 149.103 22.1101ZM126.344 28.0098C126.85 27.5053 127.71 27.469 128.265 27.9287L127.349 28.8422C128.265 27.9287 128.265 27.9287 128.265 27.9287L128.284 27.9447C128.296 27.955 128.315 27.9702 128.338 27.9899C128.386 28.0295 128.456 28.0875 128.545 28.1619C128.723 28.3106 128.978 28.525 129.289 28.7882C129.911 29.3142 130.757 30.037 131.653 30.8224C133.398 32.3535 135.471 34.2427 136.326 35.3385C136.76 35.8952 136.616 36.6666 136.004 37.0616C135.392 37.4565 134.543 37.3255 134.108 36.7688C133.431 35.9014 131.57 34.1847 129.764 32.601C128.884 31.8289 128.051 31.1169 127.437 30.5976C127.13 30.3381 126.879 30.127 126.704 29.9811C126.617 29.9082 126.549 29.8515 126.503 29.8132C126.48 29.7941 126.462 29.7795 126.451 29.7699L126.434 29.7557C126.434 29.7557 126.433 29.7556 126.446 29.7431L126.434 29.7557C125.879 29.296 125.838 28.5142 126.344 28.0098Z" fill="white"/>
</svg>
