<svg width="140" height="42" viewBox="0 0 140 42" fill="none" xmlns="http://www.w3.org/2000/svg">
<path d="M29.2922 9.36C30.2922 6.72 28.8922 4.56 26.6922 4.04C24.4522 3.52 22.3322 4.28 21.4922 6.84L15.4122 25.88L9.25219 6.88C8.41219 4.28 6.09219 3.52 3.85219 4.04C1.65219 4.56 0.0521875 6.72 1.01219 9.28L11.2122 36.24H19.2922L29.2922 9.36ZM28.6147 32.8C28.6147 35.28 30.2147 36.84 32.8947 36.84C35.5747 36.84 37.1747 35.24 37.1747 32.8C37.1747 30.36 35.5747 28.76 32.8947 28.76C30.2147 28.76 28.6147 30.32 28.6147 32.8ZM49.0944 12.2C49.0944 11.24 49.3344 11.04 50.2544 11.04H60.3744C62.7344 11.04 63.6144 9.24 63.6144 7.6C63.6144 5.96 62.6944 4.04 60.3744 4.04H47.1344C42.3344 4.04 40.8944 5.76 40.8944 10.36V29.92C40.8944 34.52 42.3344 36.24 47.1344 36.24H60.7744C63.0944 36.24 64.0144 34.32 64.0144 32.68C64.0144 31.04 63.1344 29.24 60.7744 29.24H50.2544C49.3344 29.24 49.0944 29.04 49.0944 28.08V23.4H60.0144C62.3744 23.4 63.2544 21.6 63.2544 20C63.2544 18.4 62.3344 16.48 60.0144 16.48H49.0944V12.2ZM66.7788 32.8C66.7788 35.28 68.3788 36.84 71.0588 36.84C73.7388 36.84 75.3388 35.24 75.3388 32.8C75.3388 30.36 73.7388 28.76 71.0588 28.76C68.3788 28.76 66.7788 30.32 66.7788 32.8ZM87.2984 36.24V24.24H97.5784C99.9384 24.24 100.818 22.44 100.818 20.8C100.818 19.16 99.8984 17.24 97.5784 17.24H87.2984V12.2C87.2984 11.24 87.5384 11.04 88.4584 11.04H98.6184C100.978 11.04 101.858 9.24 101.858 7.6C101.858 5.96 100.938 4.04 98.6184 4.04H85.2984C80.4984 4.04 79.0584 5.76 79.0584 10.36V36.24H87.2984ZM101.388 32.8C101.388 35.28 102.988 36.84 105.668 36.84C108.348 36.84 109.948 35.24 109.948 32.8C109.948 30.36 108.348 28.76 105.668 28.76C102.988 28.76 101.388 30.32 101.388 32.8Z" fill="white"/>
<path d="M120.224 22.3517C117.051 22.0402 108.546 22.3963 107.202 11.9145C117.578 10.9038 121.049 13.221 120.224 22.3517C121.31 23.3186 122.259 26.5179 122.603 29.7224C123.1 25.5128 123.28 18.9997 127.761 14.9432C124.924 9.12787 126.631 3.87789 138.528 4.41503C139.192 7.90815 138.581 16.6497 127.761 14.9432C123.28 18.9997 123.1 25.5128 122.603 29.7224C122.259 26.5179 121.31 23.3186 120.224 22.3517Z" fill="#68BE3F"/>
<path fill-rule="evenodd" clip-rule="evenodd" d="M126.384 14.9402C125.165 12.1169 124.884 9.1586 126.681 6.88605C128.604 4.45331 132.54 3.29098 138.582 3.56315C139.125 3.58758 139.577 3.95861 139.671 4.45712C140.028 6.33567 140.067 9.67552 138.467 12.3836C137.65 13.7676 136.399 14.9933 134.561 15.7364C132.866 16.4219 130.757 16.6623 128.172 16.3321C126.404 18.1088 125.415 20.3722 124.817 22.7552C124.314 24.7602 124.106 26.7581 123.917 28.5711C123.864 29.0885 123.555 33.4755 123.498 33.9587C123.432 34.5106 123.145 36.3971 122.55 36.3944C121.954 36.3916 121.832 33.7153 121.44 30.0635C121.275 28.5179 120.964 26.9842 120.571 25.7367C120.375 25.1127 120.164 24.5787 119.95 24.1585C119.835 23.9317 119.728 23.7567 119.635 23.6257C119.525 23.6178 119.408 23.6098 119.286 23.6014C117.647 23.4892 114.969 23.3059 112.501 22.1504C109.426 20.7105 106.757 17.8418 106.045 12.278C106.008 11.9896 106.096 11.6994 106.291 11.4724C106.485 11.2454 106.769 11.1005 107.079 11.0703C109.714 10.8134 111.979 10.76 113.88 10.9935C115.786 11.2276 117.4 11.759 118.654 12.7287C121.112 14.6298 121.754 17.849 121.418 22.2192C121.662 22.5232 121.871 22.8723 122.053 23.2292C122.119 23.3596 122.184 23.4953 122.247 23.6357C122.336 23.1788 122.436 22.7194 122.551 22.2615C123.19 19.7136 124.292 17.0815 126.384 14.9402ZM119.17 19.8162C119.112 16.9904 118.401 15.3519 117.168 14.3986C116.361 13.7742 115.213 13.3454 113.576 13.1443C112.202 12.9756 110.535 12.9735 108.531 13.1232C109.337 17.2739 111.42 19.2161 113.546 20.2116C114.844 20.8194 116.187 21.0985 117.423 21.2522C116.668 20.5215 115.792 19.7137 114.933 18.9408C114.057 18.1531 113.228 17.4267 112.618 16.897C112.313 16.6323 112.063 16.417 111.889 16.2681C111.802 16.1937 111.735 16.1359 111.689 16.0968C111.666 16.0772 111.648 16.0623 111.637 16.0524L111.62 16.0378C111.62 16.0378 111.62 16.0378 111.774 15.8799L111.62 16.0378C111.145 15.6344 111.111 14.9483 111.544 14.5055C111.976 14.0626 112.712 14.0307 113.187 14.4342L112.403 15.236C113.187 14.4342 113.187 14.4342 113.187 14.4342L113.187 14.4345L113.206 14.4503C113.218 14.4608 113.236 14.4762 113.26 14.4963C113.307 14.5365 113.376 14.5955 113.464 14.6712C113.641 14.8226 113.894 15.0408 114.203 15.3088C114.82 15.8444 115.66 16.5801 116.549 17.3796C117.409 18.1533 118.343 19.0123 119.17 19.8162ZM129.825 14.298C131.428 14.3641 132.672 14.1359 133.636 13.7461C134.935 13.2206 135.824 12.3624 136.429 11.3376C137.474 9.56772 137.651 7.32785 137.5 5.69897C132.294 5.60308 129.681 6.74695 128.553 8.1731C127.65 9.31507 127.486 10.9202 128.075 12.8673C128.627 12.2374 129.273 11.5584 129.886 10.9351C130.519 10.2922 131.126 9.69983 131.573 9.26869C131.798 9.0529 131.983 8.87699 132.112 8.75471C132.176 8.69357 132.227 8.6458 132.262 8.61314C132.279 8.59681 132.293 8.58425 132.302 8.57568L132.316 8.56248C132.316 8.56248 132.316 8.56214 133.139 9.32854L132.316 8.56248C132.77 8.13855 133.507 8.13767 133.961 8.56094C134.416 8.98421 134.416 9.671 133.962 10.0949L133.95 10.1061C133.942 10.1139 133.93 10.1256 133.913 10.1411C133.88 10.172 133.831 10.2179 133.769 10.2772C133.644 10.3956 133.463 10.567 133.245 10.7778C132.806 11.1998 132.215 11.7773 131.6 12.4017C130.984 13.0276 130.354 13.692 129.833 14.2894C129.831 14.2923 129.828 14.2951 129.825 14.298Z" fill="#68BE3F"/>
<path fill-rule="evenodd" clip-rule="evenodd" d="M134.02 9.57933C134.586 10.0324 134.651 10.8276 134.166 11.3555L128.785 17.2023C128.299 17.7302 127.446 17.7909 126.88 17.3379C126.314 16.8849 126.249 16.0897 126.734 15.5618L132.115 9.71493C132.601 9.18701 133.454 9.12631 134.02 9.57933ZM111.407 15.5923C111.909 15.0781 112.763 15.0412 113.315 15.5097L112.405 16.4407C113.315 15.5097 113.315 15.5098 113.315 15.5098L113.334 15.526C113.346 15.5365 113.364 15.552 113.388 15.5721C113.435 15.6124 113.504 15.6716 113.593 15.7474C113.77 15.899 114.023 16.1174 114.333 16.3857C114.951 16.9219 115.791 17.6585 116.681 18.459C118.415 20.0195 120.475 21.945 121.324 23.0619C121.756 23.6292 121.613 24.4155 121.004 24.818C120.396 25.2206 119.553 25.087 119.121 24.5196C118.448 23.6355 116.599 21.8859 114.805 20.2717C113.93 19.4848 113.102 18.7591 112.492 18.2299C112.187 17.9654 111.937 17.7503 111.764 17.6015C111.677 17.5272 111.61 17.4694 111.564 17.4304C111.541 17.4109 111.524 17.3961 111.512 17.3862L111.495 17.3718L111.495 17.3717C111.495 17.3717 111.495 17.3717 111.508 17.359L111.495 17.3717C110.944 16.9032 110.904 16.1065 111.407 15.5923Z" fill="#4D942C"/>
</svg>
