<svg width="471" height="524" viewBox="0 0 471 524" fill="none" xmlns="http://www.w3.org/2000/svg">
<ellipse cx="235" cy="454" rx="160" ry="70" fill="#4D942C"/>
<path d="M196.93 269.226C152.997 264.77 35.2488 269.865 16.6461 119.94C160.304 105.485 208.351 138.628 196.93 269.226C211.959 283.056 225.103 328.816 229.861 374.651C236.742 314.439 239.243 221.282 301.274 163.261C261.996 80.0834 285.63 4.99198 450.341 12.6747C459.536 62.6375 451.085 187.669 301.274 163.261C239.243 221.282 236.742 314.439 229.861 374.651C225.103 328.816 211.959 283.056 196.93 269.226Z" fill="#68BE3F"/>
<path fill-rule="evenodd" clip-rule="evenodd" d="M282.307 163.359C265.407 122.968 261.49 80.6534 286.347 48.1613C312.956 13.379 367.445 -3.21876 451.097 0.716104C458.606 1.06932 464.867 6.3793 466.182 13.5102C471.14 40.3818 471.698 88.1523 449.581 126.875C438.278 146.664 420.961 164.188 395.527 174.803C372.061 184.596 342.866 188.02 307.069 183.28C282.612 208.679 268.932 241.046 260.677 275.126C253.73 303.801 250.87 332.376 248.274 358.306C247.533 365.706 243.291 428.452 242.505 435.362C241.606 443.255 237.647 470.236 229.403 470.193C221.16 470.15 219.439 431.869 213.992 379.634C211.687 357.526 207.368 335.587 201.921 317.742C199.197 308.816 196.27 301.175 193.31 295.165C191.712 291.919 190.233 289.416 188.944 287.542C187.417 287.427 185.803 287.312 184.109 287.191C161.418 285.576 124.342 282.935 90.1636 266.39C47.5769 245.774 10.6026 204.725 0.690145 125.14C0.176304 121.014 1.40154 116.864 4.09145 113.618C6.78135 110.373 10.7111 108.303 15.0007 107.873C51.4748 104.218 82.8344 103.469 109.159 106.822C135.546 110.183 157.896 117.796 175.264 131.674C209.314 158.882 218.227 204.931 213.612 267.437C216.993 271.787 219.897 276.78 222.411 281.887C223.33 283.752 224.226 285.694 225.098 287.703C226.33 281.168 227.721 274.599 229.307 268.05C238.135 231.611 253.361 193.971 282.307 163.359ZM182.472 233.05C181.644 192.632 171.786 169.192 154.711 155.549C143.527 146.612 127.635 140.471 104.964 137.583C85.9397 135.16 62.8654 135.118 35.1253 137.246C46.3159 196.619 75.163 224.413 104.608 238.667C122.583 247.369 141.182 251.37 158.294 253.577C147.84 243.121 135.703 231.561 123.804 220.5C111.677 209.227 100.193 198.833 91.7365 191.252C87.5104 187.464 84.0453 184.383 81.64 182.252C80.4375 181.186 79.5002 180.359 78.8655 179.799C78.5481 179.519 78.3065 179.307 78.1451 179.165L77.9072 178.955C77.9072 178.955 77.907 178.955 80.0422 176.698L77.9072 178.955C71.3298 173.182 70.8519 163.368 76.8402 157.038C82.8284 150.707 93.0149 150.255 99.5923 156.029L88.7496 167.492C99.5923 156.029 99.5923 156.029 99.5923 156.029L99.5978 156.034L99.8556 156.261C100.026 156.41 100.276 156.631 100.602 156.918C101.255 157.494 102.212 158.339 103.435 159.422C105.88 161.589 109.392 164.711 113.669 168.546C122.221 176.211 133.853 186.741 146.161 198.181C158.072 209.253 171.021 221.547 182.472 233.05ZM329.951 154.197C352.143 155.153 369.357 151.898 382.7 146.33C400.689 138.822 412.985 126.554 421.355 111.899C435.81 86.5925 438.239 54.5566 436.131 31.2574C364.057 29.8498 327.883 46.1925 312.284 66.5832C299.793 82.9106 297.538 105.868 305.702 133.721C313.338 124.716 322.277 115.009 330.765 106.098C339.519 96.9063 347.912 88.4379 354.109 82.2744C357.211 79.1895 359.769 76.6747 361.557 74.9267C362.451 74.0525 363.153 73.3697 363.634 72.9028C363.875 72.6693 364.06 72.4898 364.186 72.3673L364.382 72.1786C364.382 72.1786 364.387 72.1737 375.788 83.1413L364.382 72.1786C370.664 66.1182 380.867 66.1108 387.164 72.168C393.461 78.2252 393.472 88.0484 387.19 94.1088L387.024 94.2685C386.91 94.3794 386.737 94.547 386.509 94.7682C386.053 95.2107 385.378 95.8673 384.512 96.7138C382.78 98.407 380.287 100.858 377.257 103.871C371.192 109.904 363.009 118.16 354.508 127.086C345.985 136.035 337.258 145.534 330.055 154.074C330.02 154.115 329.985 154.156 329.951 154.197Z" fill="#68BE3F"/>
<path fill-rule="evenodd" clip-rule="evenodd" d="M387.918 86.5467C395.757 93.0264 396.658 104.4 389.931 111.951L315.434 195.58C308.707 203.13 296.9 203.999 289.062 197.519C281.223 191.039 280.322 179.665 287.048 172.115L361.546 88.4862C368.273 80.9353 380.08 80.067 387.918 86.5467ZM74.8365 172.552C81.7935 165.197 93.6223 164.668 101.257 171.37L88.66 184.686C101.257 171.37 101.258 171.371 101.259 171.372L101.522 171.603C101.693 171.753 101.944 171.974 102.271 172.263C102.925 172.839 103.882 173.685 105.106 174.769C107.554 176.938 111.068 180.062 115.348 183.899C123.903 191.568 135.543 202.104 147.86 213.554C171.871 235.875 200.382 263.415 212.149 279.39C218.126 287.505 216.143 298.751 207.719 304.508C199.295 310.266 187.621 308.355 181.644 300.241C172.33 287.595 146.723 262.57 121.886 239.482C109.779 228.227 98.3122 217.847 89.8669 210.277C85.6467 206.494 82.1868 203.417 79.7858 201.29C78.5854 200.226 77.6501 199.4 77.0171 198.842C76.7006 198.563 76.4598 198.351 76.2992 198.21L76.0654 198.005L76.0633 198.003C76.0632 198.003 76.0632 198.003 76.2355 197.82L76.0633 198.003C68.4288 191.301 67.8795 179.906 74.8365 172.552Z" fill="#4D942C"/>
</svg>
